# xmcd CD database file
#
# Track frame offsets:
#	150
#	15637
#	31782
#	47966
#	60111
#	88779
#	112584
#	132988
#	153629
#	162718
#	189960
#	211028
#	232542
#
# Disc length: 3337 seconds
#
# Revision: 1
# Processed by: cddbd v1.4PL0 Copyright (c) Steve Scherf et al.
# Submitted via: CDex 1.50Beta7
#
DISCID=940d070d
DTITLE=Brenda Boykin - Conversations in Time CD1
DYEAR=2002
DGENRE=Jazz
TTITLE0=Mood Indigo
TTITLE1=Blue Moon
TTITLE2=Manha de Carnaval
TTITLE3=Well You Needn`t
TTITLE4=Lover Man
TTITLE5=Have A Conversation
TTITLE6=Martinique
TTITLE7=Busted Flush
TTITLE8=Crazy Little Daddy
TTITLE9=I Love You For Sentimental Reasons
TTITLE10=Laia Ladaia
TTITLE11=Night And Day
TTITLE12=Big Fine Mama
EXTD=YEAR: 2002
EXTT0=
EXTT1=
EXTT2=
EXTT3=
EXTT4=
EXTT5=
EXTT6=
EXTT7=
EXTT8=
EXTT9=
EXTT10=
EXTT11=
EXTT12=
PLAYORDER=
